<svg width="32" height="32" viewBox="0 0 32 32" fill="none" xmlns="http://www.w3.org/2000/svg">
<path d="M16 29.3334C16.8257 29.3344 17.6313 29.0781 18.3047 28.6002C18.978 28.1223 19.4858 27.4465 19.7573 26.6667H12.2427C12.5142 27.4465 13.022 28.1223 13.6953 28.6002C14.3687 29.0781 15.1743 29.3344 16 29.3334ZM25.3333 19.448V13.3334C25.3333 9.04402 22.42 5.43069 18.4733 4.34402C18.0827 3.36002 17.128 2.66669 16 2.66669C14.872 2.66669 13.9173 3.36002 13.5267 4.34402C9.58 5.43202 6.66667 9.04402 6.66667 13.3334V19.448L4.39067 21.724C4.26661 21.8476 4.16823 21.9946 4.10118 22.1563C4.03413 22.3181 3.99975 22.4916 4 22.6667V24C4 24.3536 4.14048 24.6928 4.39053 24.9428C4.64057 25.1929 4.97971 25.3334 5.33333 25.3334H26.6667C27.0203 25.3334 27.3594 25.1929 27.6095 24.9428C27.8595 24.6928 28 24.3536 28 24V22.6667C28.0003 22.4916 27.9659 22.3181 27.8988 22.1563C27.8318 21.9946 27.7334 21.8476 27.6093 21.724L25.3333 19.448Z" fill="#0B002A"/>
</svg>
