<svg width="32" height="32" viewBox="0 0 32 32" fill="none" xmlns="http://www.w3.org/2000/svg">
<path d="M25.3333 18.1147V13.3333C25.3333 9.04399 22.42 5.43066 18.4733 4.34399C18.0827 3.35999 17.128 2.66666 16 2.66666C14.872 2.66666 13.9173 3.35999 13.5267 4.34399C9.58 5.43199 6.66667 9.04399 6.66667 13.3333V18.1147L4.39067 20.3907C4.26661 20.5143 4.16823 20.6612 4.10118 20.823C4.03413 20.9848 3.99975 21.1582 4 21.3333V24C4 24.3536 4.14048 24.6928 4.39053 24.9428C4.64057 25.1928 4.97971 25.3333 5.33333 25.3333H26.6667C27.0203 25.3333 27.3594 25.1928 27.6095 24.9428C27.8595 24.6928 28 24.3536 28 24V21.3333C28.0003 21.1582 27.9659 20.9848 27.8988 20.823C27.8318 20.6612 27.7334 20.5143 27.6093 20.3907L25.3333 18.1147ZM25.3333 22.6667H6.66667V21.8853L8.94267 19.6093C9.06672 19.4857 9.16511 19.3388 9.23216 19.177C9.2992 19.0152 9.33359 18.8418 9.33333 18.6667V13.3333C9.33333 9.65732 12.324 6.66666 16 6.66666C19.676 6.66666 22.6667 9.65732 22.6667 13.3333V18.6667C22.6667 19.0213 22.8067 19.36 23.0573 19.6093L25.3333 21.8853V22.6667ZM16 29.3333C16.8257 29.3344 17.6313 29.0781 18.3047 28.6002C18.978 28.1223 19.4858 27.4465 19.7573 26.6667H12.2427C12.5142 27.4465 13.022 28.1223 13.6953 28.6002C14.3687 29.0781 15.1743 29.3344 16 29.3333Z" fill="black"/>
</svg>
